HIERARCHY
ROOT Hips
{
	OFFSET 0.00 0.00 0.00
	CHANNELS 6 Xposition Yposition Zposition Xrotation Yrotation Zrotation
	JOINT Spine
	{
		OFFSET 0.00000 7.50895 0.00000
		CHANNELS 3 Xrotation Yrotation Zrotation
		JOINT Head
		{
			OFFSET 0.00000 13.86115 0.00000
			CHANNELS 3 Xrotation Yrotation Zrotation
			End Site
			{
				OFFSET 0.00000 4.52755 0.00000
			}
		}
		JOINT LeftShoulder
		{
			OFFSET 0.00000 8.20478 0.00000
			CHANNELS 3 Xrotation Yrotation Zrotation
			JOINT LeftArm
			{
				OFFSET 6.63596 0.00000 0.00000
				CHANNELS 3 Xrotation Yrotation Zrotation
				JOINT LeftForeArm
				{
					OFFSET 10.27422 0.00000 0.00000
					CHANNELS 3 Yrotation Zrotation Xrotation
					JOINT LeftHand
					{
						OFFSET 8.52215 0.00000 0.00000
						CHANNELS 3 Xrotation Yrotation Zrotation
						JOINT LeftHandThumb1
						{
							OFFSET 0.00000 0.00000 0.00000
							CHANNELS 3 Xrotation Zrotation Yrotation
							End Site
							{
								OFFSET 0.00000 0.00000 3.93700
							}
						}
						End Site
						{
							OFFSET 3.93700 0.00000 0.00000
						}
					}
				}
			}
		}
		JOINT RightShoulder
		{
			OFFSET 0.00000 8.20478 0.00000
			CHANNELS 3 Xrotation Yrotation Zrotation
			JOINT RightArm
			{
				OFFSET -6.63596 0.00000 0.00000
				CHANNELS 3 Xrotation Yrotation Zrotation
				JOINT RightForeArm
				{
					OFFSET -10.27422 0.00000 0.00000
					CHANNELS 3 Yrotation Zrotation Xrotation
					JOINT RightHand
					{
						OFFSET -8.52215 0.00000 0.00000
						CHANNELS 3 Xrotation Yrotation Zrotation
						JOINT RightHandThumb1
						{
							OFFSET 0.00000 0.00000 0.00000
							CHANNELS 3 Xrotation Zrotation Yrotation
							End Site
							{
								OFFSET 0.00000 0.00000 3.93700
							}
						}
						End Site
						{
							OFFSET -3.93700 0.00000 0.00000
						}
					}
				}
			}
		}
	}
	JOINT LeftUpLeg
	{
		OFFSET 3.00056 0.00000 0.00000
		CHANNELS 3 Xrotation Yrotation Zrotation
		JOINT LeftLeg
		{
			OFFSET 0.00000 -16.49085 0.00000
			CHANNELS 3 Xrotation Yrotation Zrotation
			JOINT LeftFoot
			{
				OFFSET 0.00000 -14.55658 0.00000
				CHANNELS 3 Xrotation Yrotation Zrotation
				JOINT LeftToeBase
				{
					OFFSET 0.00000 -1.25038 4.66650
					CHANNELS 3 Xrotation Yrotation Zrotation
					End Site
					{
						OFFSET 0.00000 0.00000 2.95275
					}
				}
			}
		}
	}
	JOINT RightUpLeg
	{
		OFFSET -3.00056 0.00000 0.00000
		CHANNELS 3 Xrotation Yrotation Zrotation
		JOINT RightLeg
		{
			OFFSET 0.00000 -16.49085 0.00000
			CHANNELS 3 Xrotation Yrotation Zrotation
			JOINT RightFoot
			{
				OFFSET 0.00000 -14.55658 0.00000
				CHANNELS 3 Xrotation Yrotation Zrotation
				JOINT RightToeBase
				{
					OFFSET 0.00000 -1.25038 4.66650
					CHANNELS 3 Xrotation Yrotation Zrotation
					End Site
					{
						OFFSET 0.00000 0.00000 2.95275
					}
				}
			}
		}
	}
}
MOTION
Frames: 15
Frame Time: 0.008333
 1.6039 32.7943 3.2240 11.5722 3.2968 0.2528 -24.7688 6.1675 -1.6055 9.0238 -4.1629 19.3251 5.2985 14.1455 26.2624 -154.8920 -24.3185 -66.5175 -152.6267 -0.0000 -31.3198 0.8772 3.2131 -15.2792 33.1476 -0.0000 26.2537 -10.0347 -4.1753 -13.6790 -142.8238 65.8619 -117.0764 110.5474 0.0000 29.3513 8.9037 47.5144 -11.9935 32.8623 0.0000 -24.3270 -1.7575 6.1063 2.2582 -4.2405 -0.0000 0.0000 -7.8573 8.1959 -11.2024 11.0227 0.0000 -0.0000 -2.9350 -14.9680 -7.1335 -1.9845 -0.0000 0.0000 -5.7785 -4.3654 6.1419 0.4876 0.0000 0.0000
 1.6036 32.7943 3.2244 11.5435 3.2539 0.2506 -24.7482 6.1477 -1.5693 9.0165 -4.0202 19.2985 5.2632 14.1434 26.2311 -154.9465 -24.4152 -66.5135 -152.6359 -0.0000 -31.3493 0.8920 3.2988 -15.1393 33.1476 -0.0000 26.2537 -10.0421 -4.1784 -13.6893 -142.6856 65.8734 -117.1488 110.4818 0.0000 29.1445 8.7690 47.5933 -11.8000 32.8623 0.0000 -24.3270 -1.7300 6.1417 2.2670 -4.2346 -0.0000 0.0000 -7.8015 8.2039 -11.3618 10.7980 -0.0000 -0.0000 -2.9110 -14.9065 -7.1301 -1.9715 -0.0000 0.0000 -5.7921 -4.3778 6.1667 0.5659 0.0000 0.0000
 1.6047 32.7946 3.2249 11.5165 3.2030 0.2615 -24.7437 6.1468 -1.5470 9.0377 -3.8730 19.3520 5.2205 14.1315 26.2219 -154.9247 -24.5138 -66.4956 -152.6397 -0.0000 -31.2530 0.8755 3.2577 -15.0519 33.1476 -0.0000 26.2537 -10.0157 -4.1829 -13.6611 -142.5515 65.9428 -117.2729 110.4294 0.0000 29.1626 8.7067 47.6437 -11.7080 32.8623 0.0000 -24.3270 -1.6954 6.1512 2.2570 -4.2346 -0.0000 -0.0000 -7.7995 8.2529 -11.3825 10.7594 -0.0000 0.0000 -2.9031 -14.8501 -7.1420 -1.9461 0.0000 -0.0000 -5.7878 -4.3752 6.1319 0.4872 -0.0000 -0.0000
 1.6051 32.7949 3.2258 11.5032 3.1476 0.2753 -24.7512 6.1535 -1.5229 9.0407 -3.7597 19.3661 5.0453 14.0267 26.2388 -154.7854 -24.6254 -66.4587 -152.6269 -0.0000 -31.2152 0.8498 3.1820 -14.9612 33.1476 -0.0000 26.2537 -10.0013 -4.2080 -13.6403 -142.3549 66.0889 -117.4659 110.3778 0.0000 29.1566 8.5362 48.0764 -11.4053 32.8623 0.0000 -24.3270 -1.6714 6.1806 2.2450 -4.2378 0.0000 -0.0000 -7.8014 8.2704 -11.3280 10.7787 -0.0000 -0.0000 -2.9066 -14.7887 -7.1558 -1.9230 -0.0000 0.0000 -5.8137 -4.3934 6.1693 0.5991 -0.0000 -0.0000
 1.6067 32.7948 3.2285 11.4679 3.0924 0.2860 -24.7381 6.1779 -1.4893 9.0150 -3.6783 19.3866 4.9594 13.9889 26.2626 -154.7359 -24.7048 -66.4289 -152.6634 -0.0000 -31.0575 0.8475 3.1901 -14.8866 33.1476 -0.0000 26.2537 -9.9957 -4.2327 -13.6141 -142.2558 66.1889 -117.5393 110.3409 0.0000 29.1926 8.4961 48.2324 -11.3254 32.8623 0.0000 -24.3270 -1.6234 6.2402 2.2332 -4.2408 0.0000 0.0000 -7.8096 8.2716 -11.3040 10.7761 -0.0000 -0.0000 -2.8818 -14.7329 -7.1662 -1.9118 -0.0000 -0.0000 -5.7959 -4.3773 6.1189 0.4601 -0.0000 0.0000
 1.6087 32.7949 3.2301 11.4423 3.0452 0.3026 -24.7339 6.1909 -1.4680 9.0019 -3.6090 19.4324 4.8887 13.9894 26.2894 -154.6628 -24.7831 -66.4065 -152.7043 -0.0000 -30.8287 0.8502 3.2355 -14.7309 33.1476 -0.0000 26.2537 -10.0191 -4.2358 -13.5725 -142.1870 66.2709 -117.5603 110.3040 0.0000 29.2062 8.4418 48.3205 -11.2389 32.8623 0.0000 -24.3270 -1.5912 6.2685 2.2139 -4.2210 -0.0000 -0.0000 -7.8776 8.2931 -11.1900 10.9631 0.0000 0.0000 -2.8701 -14.6803 -7.1850 -1.8943 -0.0000 -0.0000 -5.8055 -4.3866 6.1248 0.4910 0.0000 0.0000
 1.6093 32.7952 3.2317 11.4233 2.9985 0.3056 -24.7492 6.2053 -1.4266 9.0045 -3.4914 19.4315 4.8479 13.9811 26.3095 -154.5899 -24.8670 -66.3792 -152.7311 -0.0000 -30.6216 0.8364 3.2110 -14.6074 33.1476 -0.0000 26.2537 -10.0315 -4.2329 -13.5543 -142.0972 66.2871 -117.6323 110.2564 0.0000 29.1993 8.2410 48.2587 -10.9848 32.8623 0.0000 -24.3270 -1.5674 6.3121 2.2159 -4.2240 -0.0000 -0.0000 -7.8347 8.2954 -11.3161 10.8542 0.0000 -0.0000 -2.8625 -14.6465 -7.1890 -1.8756 -0.0000 -0.0000 -5.8292 -4.3741 6.1632 0.5743 -0.0000 -0.0000
 1.6118 32.7952 3.2339 11.4004 2.9668 0.3179 -24.7633 6.2248 -1.3964 9.0060 -3.3670 19.3942 4.8667 13.9684 26.3056 -154.5976 -24.9256 -66.3721 -152.7459 -0.0000 -30.4454 0.8309 3.2099 -14.5207 33.1476 -0.0000 26.2537 -10.0310 -4.2468 -13.5468 -141.8718 66.3828 -117.9262 110.1962 0.0000 29.3307 8.2455 48.5617 -10.9405 32.8623 0.0000 -24.3270 -1.5390 6.3378 2.1991 -4.2042 -0.0000 0.0000 -7.8928 8.2908 -11.1685 10.9690 0.0000 -0.0000 -2.8442 -14.6275 -7.2055 -1.8765 -0.0000 -0.0000 -5.8178 -4.3520 6.1976 0.5442 0.0000 0.0000
 1.6136 32.7939 3.2389 11.3478 2.9544 0.3310 -24.7429 6.2145 -1.3881 8.9991 -3.2725 19.4238 4.9386 14.0286 26.3137 -154.6946 -24.9090 -66.4193 -152.7783 -0.0000 -30.3085 0.8411 3.2487 -14.5237 33.1476 -0.0000 26.2537 -10.0493 -4.2353 -13.5346 -141.8553 66.3441 -117.9852 110.1594 0.0000 29.4289 8.3600 48.4304 -11.1128 32.8623 0.0000 -24.3270 -1.4725 6.3435 2.1898 -4.2187 -0.0000 -0.0000 -7.8426 8.2874 -11.2968 10.8053 0.0000 -0.0000 -2.7831 -14.6671 -7.2170 -1.9012 -0.0000 -0.0000 -5.7930 -4.3059 6.1744 0.4692 -0.0000 0.0000
 1.6146 32.7932 3.2405 11.3402 2.9397 0.3348 -24.7681 6.2217 -1.3559 8.9883 -3.2220 19.3974 4.8995 13.9454 26.3097 -154.7038 -24.8811 -66.4633 -152.7506 -0.0000 -30.2817 0.8407 3.2327 -14.5851 33.1476 -0.0000 26.2537 -10.0782 -4.2250 -13.5638 -141.8089 66.3053 -118.0644 110.1021 0.0000 29.4747 8.7586 48.5602 -11.6137 32.8623 0.0000 -24.3270 -1.4592 6.3275 2.1893 -4.2161 0.0000 -0.0000 -7.8466 8.3179 -11.3264 10.7855 -0.0000 0.0000 -2.7688 -14.6927 -7.2197 -1.9240 -0.0000 0.0000 -5.7870 -4.2622 6.1771 0.4738 0.0000 0.0000
 1.6154 32.7940 3.2409 11.3343 2.9162 0.3319 -24.8107 6.2200 -1.3287 9.0301 -3.1220 19.4487 5.0447 14.0313 26.3034 -154.8342 -24.8558 -66.5347 -152.7571 -0.0000 -30.1511 0.8417 3.2386 -14.5773 33.1476 -0.0000 26.2537 -10.0791 -4.1621 -13.5579 -141.8150 66.2896 -118.0503 110.0654 0.0000 29.4269 8.5862 48.4233 -11.4112 32.8623 0.0000 -24.3270 -1.4484 6.2997 2.1950 -4.2150 -0.0000 -0.0000 -7.8408 8.3599 -11.3487 10.7374 0.0000 -0.0000 -2.7620 -14.7034 -7.2174 -1.9338 -0.0000 0.0000 -5.7914 -4.2329 6.2412 0.5607 0.0000 -0.0000
 1.6170 32.7939 3.2423 11.3305 2.9032 0.3358 -24.8413 6.2288 -1.3092 9.0129 -3.1115 19.4943 5.0667 14.0284 26.3189 -154.9109 -24.7947 -66.6151 -152.7297 -0.0000 -30.2279 0.8472 3.2498 -14.6208 33.1476 -0.0000 26.2537 -10.0722 -4.1412 -13.5539 -141.7681 66.3184 -118.1157 110.0279 0.0000 29.4782 8.5734 48.4633 -11.3875 32.8623 0.0000 -24.3270 -1.4366 6.2597 2.1927 -4.2146 -0.0000 -0.0000 -7.8500 8.4054 -11.3420 10.7516 0.0000 -0.0000 -2.7541 -14.7236 -7.2228 -1.9519 0.0000 -0.0000 -5.7693 -4.1954 6.2635 0.5213 -0.0000 0.0000
 1.6175 32.7940 3.2438 11.3291 2.8972 0.3377 -24.8727 6.2346 -1.2996 8.9982 -3.0864 19.5482 5.1270 14.0883 26.3318 -154.9879 -24.7662 -66.6933 -152.7013 -0.0000 -30.2732 0.8486 3.2660 -14.5729 33.1476 -0.0000 26.2537 -10.0773 -4.1322 -13.5332 -141.7872 66.3955 -118.0685 110.0054 0.0000 29.4772 8.6094 48.6588 -11.4013 32.8623 0.0000 -24.3270 -1.4308 6.2298 2.1939 -4.2122 -0.0000 -0.0000 -7.8453 8.4273 -11.3670 10.7075 -0.0000 0.0000 -2.7509 -14.7771 -7.2249 -1.9737 -0.0000 0.0000 -5.7295 -4.1415 6.2513 0.4330 0.0000 -0.0000
 1.6183 32.7936 3.2455 11.3312 2.8808 0.3353 -24.9081 6.2575 -1.2792 8.9691 -3.0666 19.6014 5.1479 14.1262 26.3605 -155.0275 -24.7381 -66.7580 -152.6459 -0.0000 -30.3311 0.8518 3.2553 -14.6727 33.1476 -0.0000 26.2537 -10.0660 -4.1503 -13.5079 -141.8107 66.4717 -118.0158 109.9952 0.0000 29.5086 8.5862 48.6938 -11.3650 32.8623 0.0000 -24.3270 -1.4194 6.1861 2.1980 -4.2266 0.0000 -0.0000 -7.8437 8.4746 -11.3416 10.7446 -0.0000 0.0000 -2.7520 -14.8007 -7.2235 -1.9806 -0.0000 0.0000 -5.7473 -4.1059 6.3066 0.5305 0.0000 0.0000
 1.6197 32.7935 3.2458 11.3374 2.8744 0.3412 -24.9410 6.2685 -1.2654 8.9320 -3.0478 19.6457 5.1506 14.1869 26.3903 -155.0456 -24.7177 -66.8160 -152.6057 -0.0000 -30.5038 0.8551 3.2568 -14.7209 33.1476 -0.0000 26.2537 -10.0443 -4.1787 -13.4804 -141.7877 66.5853 -118.0303 109.9807 0.0000 29.5033 8.2977 48.7932 -10.9710 32.8623 0.0000 -24.3270 -1.4224 6.1706 2.1900 -4.2214 0.0000 0.0000 -7.8814 8.5263 -11.2610 10.8981 0.0000 0.0000 -2.7626 -14.8272 -7.2332 -1.9861 0.0000 0.0000 -5.7420 -4.0663 6.3052 0.4928 -0.0000 0.0000
